<?xml version="1.0" encoding="UTF-8"?>
<svg width="150mm" height="150mm" version="1.1" viewBox="0 0 150 150" xmlns="http://www.w3.org/2000/svg">
 <g transform="translate(-.0008316 26.479)">
  <circle cx="75.001" cy="48.521" r="75" fill="#fff" stop-color="#000000"/>
  <g transform="matrix(.89414 0 0 .89414 11.909 7.1213)" stroke="#b6b7b9" stroke-width=".26458">
   <path d="m58.848 14.075c-0.14326-0.24385-5.629-10.839-5.629-10.871 0-0.050577 2.8217-0.94729 3.9397-1.2521 2.9852-0.81362 6.5802-1.4399 9.2667-1.6145 0.57986-0.037671 1.2166-0.09354 1.4149-0.12416l0.36068-0.055685v12.199l-0.86008 0.07412c-2.4901 0.21462-6.7109 1.0656-8.2566 1.6647-0.10065 0.039-0.20699 0.03005-0.23634-0.01988z" fill="#e31b25"/>
   <path d="m42.538 16.121c-2.3647-2.3783-4.2723-4.3679-4.2392-4.4215 0.10088-0.16332 3.0372-2.3406 4.0996-3.0398 0.54934-0.36159 1.5232-0.97301 2.1641-1.3587 1.333-0.8023 4.9544-2.6633 5.023-2.5814 0.02519 0.030034 0.58509 1.1034 1.2442 2.3852 1.9103 3.7146 3.2783 6.3599 3.8391 7.4235l0.52027 0.9867-1.6788 0.84902c-1.9051 0.96349-3.3939 1.8722-5.2395 3.1982-0.70091 0.50357-1.3102 0.90827-1.3539 0.89934-0.04371-0.0089-2.0142-1.9621-4.3789-4.3404z" fill="#e31b25"/>
   <path d="m25.663 27.506c0.11226-0.29252 1.2376-2.3422 1.7875-3.2557 1.8956-3.1491 5.186-7.3374 7.4743-9.5141l0.37673-0.35834 8.7584 8.7606-0.88626 0.91267c-0.48745 0.50197-0.91154 0.93942-0.94244 0.9721-0.26752 0.28304-1.2752 1.5163-1.6582 2.0293l-0.47636 0.63812h-7.2522c-6.7182 0-7.2471-0.0136-7.1815-0.18464z" fill="#414a51"/>
   <path d="m92.391 30.874c-0.80357-0.18004-1.5562-0.63052-2.0293-1.2146-0.69784-0.86157-0.7954-1.1435-0.79655-2.3022-0.0011-1.2464 0.22482-1.8286 1.0111-2.6038 0.79361-0.78238 1.2073-0.91948 4.4046-1.4597 1.026-0.17335 1.9249-0.35477 1.9976-0.40315 0.14359-0.09557-0.30322-0.53909-1.8776-1.8638-3.814-3.2091-8.8206-5.839-13.841-7.2704-2.3793-0.67837-5.3247-1.2038-7.4547-1.3296-0.61037-0.03608-1.2222-0.08841-1.3595-0.11626l-0.2497-0.05065v-12.119l1.1931 0.073652c7.2365 0.44671 13.47 2.0398 19.658 5.0245 4.1443 1.9986 7.7727 4.4029 11.341 7.5147 0.38364 0.33459 0.72955 0.58855 0.76869 0.56437 0.0391-0.02419-0.17191-1.3325-0.46894-2.9073-0.76845-4.0739-0.69825-4.9431 0.49468-6.1242 1.4394-1.4252 3.7584-1.4487 5.3024-0.053763 0.71783 0.64851 0.93756 1.2706 1.4845 4.2024 2.6965 14.454 2.8667 15.429 2.8126 16.107-0.0963 1.21-0.90758 2.3899-1.9941 2.8998-0.32031 0.15034-1.4894 0.41911-2.9964 0.68889-6.6546 1.1912-15.738 2.7703-16.233 2.8218-0.30519 0.03179-0.83096-0.0041-1.1683-0.07963z" fill="#e31b25"/>
   <g fill="#414a51">
    <path d="m65.26 96.871c-6.6479-0.65424-11.806-2.0528-17.313-4.6932-9.0423-4.3365-16.734-11.607-21.611-20.429-0.85742-1.5509-1.7501-3.3634-1.7501-3.5534 0-0.06995 2.4718-0.10883 6.9205-0.10883h6.9205l0.42128 0.63812c1.3604 2.0607 3.6475 4.673 5.6952 6.5048 5.6689 5.0714 12.433 8.202 19.94 9.2287 1.8419 0.25193 5.7619 0.33822 7.7335 0.17022 6.3234-0.53882 12.002-2.5221 17.347-6.0586 3.7225-2.4627 7.1287-5.7644 9.6372-9.3415l0.79476-1.1333 13.922-0.0085-0.38816 0.85179c-0.90092 1.977-2.6215 4.9421-4.0779 7.0277-7.4666 10.692-18.668 17.919-31.375 20.242-3.0215 0.55257-4.2534 0.65179-8.4344 0.67941-2.1669 0.01438-4.1395 0.0069-4.3837-0.0176z"/>
    <path d="m68.654 39.91q-3.0428 0.03666-4.5459 1.6497-1.5031 1.5764-1.6864 4.5092l15.324-0.03666v4.5825h-15.361q0 1.3931 0.29328 2.6762 0.32994 1.2831 1.2831 2.3463 0.84318 0.98982 1.9796 1.2464 1.1731 0.21996 2.3829 0.21996 0.07332 0 0.14664 0 0.10998 0 0.1833 0l9.0917-0.03666v4.5825h-9.3484q-2.2363 0-4.3259-0.40326-2.053-0.40326-3.886-1.8697-2.1996-1.7964-3.0795-4.3626-0.87984-2.6029-0.95317-5.3157-0.03666-0.58656-0.03666-1.1365 0.03666-0.5499 0.07332-1.0998 0.40326-6.2322 3.3727-9.165 3.0061-2.9328 8.9817-2.9328l9.2017-0.03666v4.5825h-9.0917z"/>
    <path d="m82.475 42.33h10.448q1.6864 0.03666 3.2261 0.40326 1.5764 0.32994 2.8228 1.5764 1.0631 1.0265 1.4664 2.4196 0.43992 1.3931 0.43992 2.8595v12.061h-13.711q-2.9695 0-4.5459-1.613-1.5764-1.6497-1.4297-4.5459 0.25662-3.4827 2.4562-4.5092 2.1996-1.0265 5.2424-1.0265l6.7088-0.03666q0.10998-2.3829-1.2464-2.9695-1.3198-0.58656-3.3727-0.58656l-8.5052-0.03666zm6.7821 15.434h6.3789v-3.996h-6.0123q-0.07332 0.03666-0.14664 0.03666t-0.14664 0q-1.0265 0.03666-1.9063 0.40326-0.87984 0.32994-0.9165 1.613-0.07332 1.4297 0.76986 1.6864 0.87984 0.25662 1.9797 0.29328z"/>
    <path d="m105.06 57.617h10.741q0.0733 0.03666 0.14664 0.03666 0.0733 0 0.14664 0 0.91651-0.03666 1.6864-0.40326 0.76987-0.3666 0.76987-1.5031 0-1.0631-0.73321-1.4297-0.7332-0.3666-1.5764-0.43992-0.10998 0-0.21996 0t-0.21996 0l-4.3992-0.03666q-3.0795 0.03666-4.8758-0.84318-1.7597-0.87984-1.7964-4.4725-0.0367-3.3727 1.833-4.7658t4.9858-1.3931l10.961-0.03666v4.0326h-9.0184q-0.10998 0.03666-0.21996 0.03666-0.0733 0-0.1833 0-0.25663 0-0.51325 0-0.21996 0-0.51324 0-0.65988 0.03666-1.2831 0.29328-0.58656 0.25662-0.76986 0.95316-0.29328 1.2831 0.51324 1.7597 0.80653 0.47658 1.8697 0.47658l4.6192-0.03666q2.7128 0.03666 4.5459 1.2831 1.833 1.2098 1.943 4.2159 0 0.03666 0 0.07332 0 0 0 0.03666 0.0367 2.3463-1.3564 4.2892-1.3564 1.9063-3.9226 1.9063h-13.161v-4.0326z"/>
    <path d="m125.22 42.33h3.5927v-7.0021h5.0958v7.0021h5.389v3.8493h-5.389v7.8086q-0.0367 2.8962 1.3198 3.3727 1.3564 0.47658 3.7393 0.47658 0.0733 0 0.14664 0 0.10998 0 0.1833 0v3.8127h-4.6558q-2.8962 0-4.3626-1.613t-1.4664-4.3992v-9.4583h-3.5927z"/>
   </g>
   <path d="m0.13229 53.731q0-2.0896 0.5499-3.7393 0.58656-1.6864 2.6029-2.8228 1.3198-0.7332 2.8595-0.9165 1.5397-0.21996 3.1161-0.21996 0.43992 0 0.84318 0 0.43992 0 0.87984 0 0.80652 0.03666 1.5764 0.03666 0.80652 0 1.5397-0.03666 1.5764-0.07332 2.3463-1.0265 0.76986-0.98982 0.58656-2.5662-0.21996-1.833-1.5031-2.163-1.2831-0.3666-2.7862-0.3666l-12.611-0.03666v-4.5459h13.784q0.1833 0.03666 0.3666 0.03666 0.21996 0 0.43992 0 0.1833 0 0.3666 0t0.3666 0q1.1731 0 2.3096 0.14664 1.1731 0.14664 2.1996 0.7332 1.6864 0.9165 2.4196 2.6029 0.76986 1.6497 0.87984 3.4461 0 0.07332 0 0.14664 0 0.03666 0 0.07332 0.1833 3.996-1.8697 6.1223-2.0163 2.1263-6.0489 2.1263l-4.9858-0.03666q-3.2628 0.03666-3.8127 1.5397-0.51324 1.4664-0.47658 4.0326 0 0.1833 0 0.43992 0 0.21996 0 0.43992l17.084-0.03666v4.5092h-23.023z" fill="#e31b25"/>
   <path d="m35.583 39.837q-1.6497 0.03666-2.9695 0.62322t-1.3198 2.6029q0 1.9796 1.3198 2.5662 1.3198 0.58656 2.9695 0.58656l3.996-0.03666q1.6497 0.03666 2.9695-0.5499t1.3198-2.5662q0.03666-2.0163-1.3198-2.6029-1.3198-0.58656-2.9695-0.58656zm-0.03666 10.851q-1.6864 0.03666-3.0061 0.69654-1.3198 0.62322-1.2831 2.5662-0.03666 2.0163 1.2831 2.6395 1.3198 0.58656 3.0061 0.58656l4.0326-0.03666q1.6497 0.03666 2.9695-0.5499 1.3198-0.62322 1.3198-2.6395 0-1.943-1.3198-2.5662-1.3198-0.65988-2.9695-0.65988zm-6.7088-2.2363q-2.1263-1.613-3.0795-3.6294-0.9165-2.0163-0.14664-4.7658 0.84318-3.0428 3.1894-3.8493 2.3829-0.80652 5.1691-0.84318l7.1121-0.03666q2.7495 0.07332 5.1691 0.87984t3.2261 3.8493q0.10998 0.47658 0.1833 0.95317 0.07332 0.43992 0.07332 0.9165 0.03666 0.80652-0.14664 1.613-0.14664 0.76986-0.43992 1.5031-0.43992 1.0998-1.2098 1.9063-0.7332 0.80652-1.6864 1.5397 1.2831 0.65988 2.1996 1.5397 0.95316 0.84318 1.3564 2.3096 0.14664 0.51324 0.21996 1.0998 0.07332 0.5499 0.07332 1.0998 0 0.58656-0.07332 1.1731-0.03666 0.5499-0.1833 1.0631-0.76986 2.7862-3.0428 3.8493-2.2363 1.0265-4.8758 1.0265h-8.7251q-2.6762 0-4.9491-1.0265-2.2363-1.0631-3.0061-3.8493-0.14664-0.51324-0.21996-1.0631-0.03666-0.58656-0.03666-1.1731 0-0.5499 0.07332-1.0998 0.10998-0.58656 0.25662-1.0998 0.40326-1.4664 1.3198-2.3096 0.9165-0.84318 2.1996-1.5397z" fill="#e31b25"/>
   <path d="m144.88 29.176q-0.8821 0-1.643 0.31648t-1.3939 0.94944q-0.63295 0.63296-0.95617 1.4073-0.32321 0.76763-0.32321 1.643 0 0.86863 0.32321 1.6363 0.32322 0.7609 0.95617 1.3939 0.63296 0.63296 1.3939 0.95617 0.76089 0.31648 1.643 0.31648 0.88884 0 1.6497-0.31648 0.76763-0.32321 1.4006-0.95617 0.62623-0.62622 0.93597-1.3871 0.31648-0.7609 0.31648-1.643 0-0.89557-0.31648-1.6565-0.31648-0.76763-0.93597-1.3939-0.63296-0.63296-1.4006-0.94944-0.76089-0.31648-1.6497-0.31648zm0-0.69356q1.0235 0 1.9056 0.37035 0.88883 0.37035 1.6228 1.1043 0.73396 0.73396 1.0976 1.6161 0.36362 0.8821 0.36362 1.9191 0 1.0235-0.36362 1.9056-0.36361 0.87537-1.0976 1.6093-0.73397 0.73396-1.6228 1.1043-0.8821 0.37035-1.9056 0.37035t-1.9123-0.37035q-0.8821-0.37035-1.6161-1.1043-0.73396-0.73396-1.0976-1.6093-0.36361-0.8821-0.36361-1.9056 0-1.037 0.36361-1.9191 0.36362-0.8821 1.0976-1.6161 0.73396-0.73396 1.6161-1.1043 0.88884-0.37035 1.9123-0.37035zm-0.1818 2.7877h-0.82824v1.8585h0.82824q0.74069 0 1.0302-0.20874 0.29627-0.20874 0.29627-0.71376 0-0.51175-0.29627-0.72049-0.29628-0.21548-1.0302-0.21548zm0.0471-0.69356q1.1851 0 1.7709 0.40402 0.58582 0.39728 0.58582 1.212 0 0.57909-0.35688 0.95617-0.35015 0.37708-0.99657 0.49155 0.1616 0.05387 0.38381 0.31648 0.22894 0.25588 0.53869 0.74743l0.9225 1.5016h-1.1582l-0.86863-1.4073q-0.39728-0.64642-0.64642-0.81476-0.24241-0.17507-0.60603-0.17507h-0.44442v2.3972h-1.0437v-5.6293z" fill="#b6b7b9"/>
  </g>
 </g>
</svg>
